<mxfile host="app.diagrams.net" modified="2023-06-20T03:05:26.242Z" agent="Mozilla/5.0 (Windows NT 10.0; Win64; x64) AppleWebKit/537.36 (KHTML, like Gecko) Chrome/114.0.0.0 Safari/537.36 Edg/114.0.1823.51" etag="sIIlrMU4m328LUgKpTWb" version="21.5.0" type="device">
  <diagram name="第 1 页" id="xmcvVKj4dekQYVMoXgwS">
    <mxGraphModel dx="1050" dy="549" grid="1" gridSize="10" guides="1" tooltips="1" connect="1" arrows="1" fold="1" page="1" pageScale="1" pageWidth="827" pageHeight="1169" math="0" shadow="0">
      <root>
        <mxCell id="0" />
        <mxCell id="1" parent="0" />
        <mxCell id="FuqMBurBE38uUV1aSeNC-8" style="rounded=0;orthogonalLoop=1;jettySize=auto;html=1;" parent="1" source="FuqMBurBE38uUV1aSeNC-1" target="FuqMBurBE38uUV1aSeNC-2" edge="1">
          <mxGeometry relative="1" as="geometry" />
        </mxCell>
        <mxCell id="FuqMBurBE38uUV1aSeNC-1" value="&lt;span style=&quot;font-size: 17px;&quot;&gt;STATE_DIM&lt;/span&gt;" style="rounded=0;whiteSpace=wrap;html=1;" parent="1" vertex="1">
          <mxGeometry x="340" y="160" width="120" height="40" as="geometry" />
        </mxCell>
        <mxCell id="FuqMBurBE38uUV1aSeNC-7" style="edgeStyle=orthogonalEdgeStyle;rounded=0;orthogonalLoop=1;jettySize=auto;html=1;entryX=0.5;entryY=0;entryDx=0;entryDy=0;" parent="1" source="FuqMBurBE38uUV1aSeNC-2" target="FuqMBurBE38uUV1aSeNC-4" edge="1">
          <mxGeometry relative="1" as="geometry" />
        </mxCell>
        <mxCell id="FuqMBurBE38uUV1aSeNC-2" value="&lt;font style=&quot;font-size: 17px;&quot;&gt;ReLU&lt;/font&gt;" style="rounded=0;whiteSpace=wrap;html=1;" parent="1" vertex="1">
          <mxGeometry x="510" y="180" width="120" height="40" as="geometry" />
        </mxCell>
        <mxCell id="FuqMBurBE38uUV1aSeNC-9" style="rounded=0;orthogonalLoop=1;jettySize=auto;html=1;entryX=1;entryY=0.5;entryDx=0;entryDy=0;" parent="1" source="FuqMBurBE38uUV1aSeNC-4" target="FuqMBurBE38uUV1aSeNC-6" edge="1">
          <mxGeometry relative="1" as="geometry" />
        </mxCell>
        <mxCell id="FuqMBurBE38uUV1aSeNC-4" value="&lt;span style=&quot;font-size: 17px;&quot;&gt;BatchNorm&lt;/span&gt;" style="rounded=0;whiteSpace=wrap;html=1;" parent="1" vertex="1">
          <mxGeometry x="510" y="240" width="120" height="40" as="geometry" />
        </mxCell>
        <mxCell id="FuqMBurBE38uUV1aSeNC-15" style="rounded=0;orthogonalLoop=1;jettySize=auto;html=1;" parent="1" source="FuqMBurBE38uUV1aSeNC-6" target="FuqMBurBE38uUV1aSeNC-10" edge="1">
          <mxGeometry relative="1" as="geometry" />
        </mxCell>
        <mxCell id="FuqMBurBE38uUV1aSeNC-6" value="&lt;span style=&quot;font-size: 17px;&quot;&gt;DIM=32&lt;/span&gt;" style="rounded=0;whiteSpace=wrap;html=1;" parent="1" vertex="1">
          <mxGeometry x="340" y="260" width="120" height="40" as="geometry" />
        </mxCell>
        <mxCell id="FuqMBurBE38uUV1aSeNC-16" style="edgeStyle=orthogonalEdgeStyle;rounded=0;orthogonalLoop=1;jettySize=auto;html=1;" parent="1" source="FuqMBurBE38uUV1aSeNC-10" target="FuqMBurBE38uUV1aSeNC-11" edge="1">
          <mxGeometry relative="1" as="geometry" />
        </mxCell>
        <mxCell id="FuqMBurBE38uUV1aSeNC-10" value="&lt;font style=&quot;font-size: 17px;&quot;&gt;ReLU&lt;/font&gt;" style="rounded=0;whiteSpace=wrap;html=1;" parent="1" vertex="1">
          <mxGeometry x="510" y="290" width="120" height="40" as="geometry" />
        </mxCell>
        <mxCell id="FuqMBurBE38uUV1aSeNC-18" style="rounded=0;orthogonalLoop=1;jettySize=auto;html=1;entryX=1;entryY=0.5;entryDx=0;entryDy=0;" parent="1" source="FuqMBurBE38uUV1aSeNC-11" target="FuqMBurBE38uUV1aSeNC-17" edge="1">
          <mxGeometry relative="1" as="geometry">
            <mxPoint x="480" y="380" as="targetPoint" />
          </mxGeometry>
        </mxCell>
        <mxCell id="FuqMBurBE38uUV1aSeNC-11" value="&lt;span style=&quot;font-size: 17px;&quot;&gt;BatchNorm&lt;/span&gt;" style="rounded=0;whiteSpace=wrap;html=1;" parent="1" vertex="1">
          <mxGeometry x="510" y="350" width="120" height="40" as="geometry" />
        </mxCell>
        <mxCell id="FuqMBurBE38uUV1aSeNC-21" style="rounded=0;orthogonalLoop=1;jettySize=auto;html=1;" parent="1" source="FuqMBurBE38uUV1aSeNC-17" target="FuqMBurBE38uUV1aSeNC-19" edge="1">
          <mxGeometry relative="1" as="geometry" />
        </mxCell>
        <mxCell id="FuqMBurBE38uUV1aSeNC-17" value="&lt;span style=&quot;font-size: 17px;&quot;&gt;DIM=32&lt;/span&gt;" style="rounded=0;whiteSpace=wrap;html=1;" parent="1" vertex="1">
          <mxGeometry x="340" y="370" width="120" height="40" as="geometry" />
        </mxCell>
        <mxCell id="FuqMBurBE38uUV1aSeNC-22" style="edgeStyle=orthogonalEdgeStyle;rounded=0;orthogonalLoop=1;jettySize=auto;html=1;" parent="1" source="FuqMBurBE38uUV1aSeNC-19" target="FuqMBurBE38uUV1aSeNC-20" edge="1">
          <mxGeometry relative="1" as="geometry" />
        </mxCell>
        <mxCell id="FuqMBurBE38uUV1aSeNC-19" value="&lt;font style=&quot;font-size: 17px;&quot;&gt;ReLU&lt;/font&gt;" style="rounded=0;whiteSpace=wrap;html=1;" parent="1" vertex="1">
          <mxGeometry x="510" y="400" width="120" height="40" as="geometry" />
        </mxCell>
        <mxCell id="FuqMBurBE38uUV1aSeNC-24" style="rounded=0;orthogonalLoop=1;jettySize=auto;html=1;" parent="1" source="FuqMBurBE38uUV1aSeNC-20" target="FuqMBurBE38uUV1aSeNC-23" edge="1">
          <mxGeometry relative="1" as="geometry" />
        </mxCell>
        <mxCell id="FuqMBurBE38uUV1aSeNC-20" value="&lt;span style=&quot;font-size: 17px;&quot;&gt;BatchNorm&lt;/span&gt;" style="rounded=0;whiteSpace=wrap;html=1;" parent="1" vertex="1">
          <mxGeometry x="510" y="460" width="120" height="40" as="geometry" />
        </mxCell>
        <mxCell id="FuqMBurBE38uUV1aSeNC-23" value="&lt;span style=&quot;font-size: 17px;&quot;&gt;3(fold, call, raise)&lt;/span&gt;" style="rounded=0;whiteSpace=wrap;html=1;" parent="1" vertex="1">
          <mxGeometry x="330" y="470" width="140" height="40" as="geometry" />
        </mxCell>
      </root>
    </mxGraphModel>
  </diagram>
</mxfile>
